<svg t="1741073179641" class="icon" viewBox="0 0 1024 1024" version="1.1" xmlns="http://www.w3.org/2000/svg" p-id="16985" width="128" height="128"><path d="M1008 368v-80H784v-128h-80v512H488a40.032 40.032 0 0 1-40-40V576h-128V336h128v-56c0-22.064 17.936-40 40-40H640v-80h-152c-57.952 0-106.432 41.296-117.6 96H312a72.08 72.08 0 0 0-72 72V416h-63.744C86.384 416 16 486.96 16 577.552V912h80V577.552C96 531.04 130.496 496 176.256 496H240v88c0 39.696 32.304 72 72 72h58.4c11.168 54.704 59.648 96 117.6 96H784v-128h224v-80H784V368h224z" fill="#565D64" p-id="16986"></path></svg>